<svg version="1.1" id="Layer_1" xmlns="http://www.w3.org/2000/svg" xmlns:xlink="http://www.w3.org/1999/xlink" x="0px" y="0px"
	 width="100%" viewBox="0 0 496 496" enable-background="new 0 0 496 496" xml:space="preserve">
<path fill="#000000" opacity="1.000000" stroke="none" 
	d="
M168.428467,497.000000 
	C166.588455,486.127716 164.893173,475.281128 163.903976,464.370544 
	C163.504196,459.961090 161.596970,459.129486 157.874329,459.289154 
	C152.875183,459.503571 147.876907,459.199860 142.935349,458.345642 
	C141.470032,458.092377 139.983810,457.762665 138.609726,457.212036 
	C131.843170,454.500702 130.784592,449.909363 136.302902,445.200623 
	C143.579880,438.991211 151.873459,434.351990 161.152664,431.734985 
	C171.219498,428.895813 181.324417,426.191772 191.972214,423.275574 
	C181.248825,418.931946 170.152267,421.107147 158.854935,419.365479 
	C161.056625,411.259369 163.119827,403.663177 165.258072,395.790649 
	C161.963348,394.705688 159.055756,393.989899 156.352982,392.806396 
	C151.207230,390.553192 150.329132,386.855682 153.747757,382.449463 
	C156.569748,378.812286 160.300201,376.409302 164.480331,374.517212 
	C177.722641,368.523193 191.442307,363.989075 205.580536,360.672028 
	C206.855576,360.372894 208.097641,359.933105 209.369659,359.109283 
	C201.914673,357.053284 194.273346,356.475067 186.639175,356.380585 
	C175.159378,356.238495 177.386581,355.544769 179.727325,347.149231 
	C180.754852,343.463745 181.639771,339.721893 182.946548,336.135773 
	C184.121719,332.910828 183.113312,331.411438 179.917816,330.940094 
	C179.429565,330.868073 178.961853,330.654083 178.485840,330.502075 
	C174.856659,329.343018 170.550323,328.674469 169.888062,324.050781 
	C169.240540,319.529907 173.025574,317.270721 176.089325,315.112396 
	C189.584808,305.605164 205.288528,301.652710 220.961899,297.691803 
	C223.645447,297.013580 226.388382,296.570374 230.029373,295.830536 
	C218.462433,292.281738 207.444473,292.659973 196.770157,291.955963 
	C195.978836,289.535339 196.797363,287.843506 197.318481,286.110504 
	C209.772980,244.692719 222.179916,203.260559 234.693909,161.860764 
	C243.982590,131.131241 253.325073,100.417213 262.868347,69.766273 
	C264.274292,65.250710 263.224915,63.208626 258.959351,61.471790 
	C247.346298,56.743202 236.385773,50.784157 226.663773,42.732822 
	C223.950729,40.485970 221.431656,38.079227 219.525116,35.099575 
	C214.592850,27.391155 216.542404,20.934877 225.009140,17.460636 
	C230.906036,15.040911 237.130035,13.954199 243.490311,13.674766 
	C257.688416,13.050986 271.798828,14.267559 285.709229,16.841894 
	C313.457642,21.977169 340.465546,29.618341 365.649933,42.744064 
	C372.156403,46.135139 378.502045,49.843430 384.132538,54.587776 
	C386.536407,56.613327 388.834900,58.872128 390.739014,61.363041 
	C397.352722,70.014954 395.045807,77.556557 384.795258,81.183838 
	C372.527466,85.524963 359.836731,84.543022 347.207031,83.930069 
	C343.239105,83.737495 339.289062,83.047661 335.347656,82.470627 
	C331.046539,81.840927 330.422363,85.163689 329.553528,87.935089 
	C325.372620,101.271027 321.400330,114.672462 317.204712,128.003647 
	C300.967773,179.595032 285.283173,231.365387 267.334259,282.403809 
	C266.133453,285.818329 264.876221,289.213074 263.689850,292.493744 
	C266.297455,294.873871 269.357086,294.590057 271.934082,295.636108 
	C277.459900,297.879181 278.697083,302.115601 274.767578,306.556091 
	C270.821625,311.015167 265.529846,313.639038 260.228577,316.057037 
	C257.072815,317.496429 255.324020,319.611877 254.425415,322.929688 
	C251.772522,332.724640 249.079803,342.516479 246.032990,352.193146 
	C244.831406,356.009399 245.587418,357.920197 249.527176,358.483185 
	C249.691513,358.506683 249.852737,358.552826 250.014786,358.591064 
	C253.407715,359.391144 257.826660,359.737030 258.646118,363.456787 
	C259.544037,367.532745 256.450043,370.869598 253.412109,373.633423 
	C250.002579,376.735352 245.727081,378.280975 241.604355,380.028595 
	C238.758957,381.234741 236.986923,383.037445 236.142029,386.016602 
	C233.192795,396.415833 230.231766,406.813812 227.064056,417.147491 
	C226.262817,419.761292 227.037491,420.810486 229.393524,421.513397 
	C231.778275,422.224915 234.245880,422.879700 236.415085,424.046600 
	C240.898392,426.458282 241.524704,430.082123 238.055893,433.842438 
	C233.098114,439.216858 226.729355,442.649902 220.057861,445.264679 
	C214.269775,447.533173 209.721329,450.915405 205.944138,455.844208 
	C195.513351,469.455139 184.834793,482.876190 174.127106,496.686157 
	C172.285645,497.000000 170.571289,497.000000 168.428467,497.000000 
z"/>
</svg>